# xmcd
#
# Track frame offsets:
#	150
#	21080
#	42093
#	58688
#	78988
#	95593
#	110773
#	130693
#	147485
#	169195
#	187778
#	207455
#	247450
#	271535
#
# Disc length: 3726 seconds
#
# Revision: 1
# Processed by: cddbd v1.5.1PL0 Copyright (c) Steve Scherf et al.
# Submitted via: CDex 1.50Beta5
#
DISCID=c60e8c0e
DTITLE=細野晴臣 - YEN レコード・ヒストリー Disc 2
DYEAR=1991
DGENRE=
TTITLE0=イエロー・マジック・オーケストラ/以心電信
TTITLE1=イエロー・マジック・オーケストラ/希望の河
TTITLE2=サンディー&ザ・サンセッツ/スティッキー・ミュージック
TTITLE3=サンディー&ザ・サンセッツ/MIRRORS OF EYES,THE
TTITLE4=戸川純/レーダーマン
TTITLE5=戸川純/母子愛情
TTITLE6=アポジー&ペリジー/月世界旅行
TTITLE7=アポジー&ペリジー/真空キッス
TTITLE8=高橋幸宏/POISON D’AVRIL
TTITLE9=高橋幸宏/君にサープライズ!
TTITLE10=立花ハジメ/REPRICANT J.B.
TTITLE11=細野晴臣/SUPER XEVIOUS
TTITLE12=細野晴臣/GAPLUS
TTITLE13=細野晴臣/TOWER OF DRUAGA,THE
EXTD=
EXTT0=
EXTT1=
EXTT2=
EXTT3=
EXTT4=
EXTT5=
EXTT6=
EXTT7=
EXTT8=
EXTT9=
EXTT10=
EXTT11=
EXTT12=
EXTT13=
PLAYORDER=
